PathFileType	4	(X/Y/Z)	D:\Share\Shared_Data\Ergonomics\Sit To Stand Pertubation\S0\Free STS.trc
DataRate	CameraRate	NumFrames	NumMarkers	Units	OrigDataRate	OrigDataStartFrame	OrigNumFrames	
100	100	12	18	m	100	1695	191
Frame#	Time	R_Toe			R_ASIS			R_Pelvis			V_Sacral			L_Pelvis			L_ASIS			Clavical			R_Acromium			L_Acromium			Sternum			Torso			R_Thigh_Med			R_Thigh_Lat			R_Thigh			R_Shank_Med			R_Shank_Lat			R_Shank			R_Heel			
		X1	Y1	Z1	X2	Y2	Z2	X3	Y3	Z3	X4	Y4	Z4	X5	Y5	Z5	X6	Y6	Z6	X7	Y7	Z7	X8	Y8	Z8	X9	Y9	Z9	X10	Y10	Z10	X11	Y11	Z11	X12	Y12	Z12	X13	Y13	Z13	X14	Y14	Z14	X15	Y15	Z15	X16	Y16	Z16	X17	Y17	Z17	X18	Y18	Z18	

1695	3.37	0.37714362	0.048809807	0.14356322	-0.029101168	0.73440424	0.1522953	-0.15788373	0.72264044	0.19822624	-0.27343103	0.69405347	-0.031431026	-0.13578236	0.71771448	-0.21270555	-0.013798336	0.7337074	-0.16524246	0.055058422	1.1026077	-0.0081046743	-0.017491119	1.1703203	0.13556454	-0.023728052	1.1728496	-0.15857649	0.069501762	1.0057338	-0.024957157	0.053084072	1.0554166	-0.12989189	0.31493494	0.49060684	0.086492332	0.29001477	0.50719952	0.21930704	0.22228639	0.64194611	0.13496526	0.25310272	0.10434538	0.1074287	0.19551875	0.091467461	0.19471851	0.25301205	0.30962271	0.22417818	0.15450694	0.048598675	0.14674193
1696	3.38	0.37705942	0.048852509	0.1435845	-0.028069681	0.73405066	0.15242061	-0.1569032	0.72312335	0.19829832	-0.27260632	0.69522113	-0.031385798	-0.13482033	0.71837921	-0.21267487	-0.012705168	0.73353009	-0.16518597	0.060786919	1.100835	-0.0079388766	-0.010888969	1.1693698	0.13571341	-0.017273069	1.1719935	-0.15824582	0.074099411	1.0038052	-0.024803537	0.058282505	1.0537046	-0.12964626	0.31487103	0.49049988	0.086528831	0.29006339	0.50710822	0.21934731	0.22243562	0.64182642	0.13503719	0.25300757	0.10429749	0.10738691	0.195452	0.091419746	0.19466956	0.25296965	0.30957812	0.22414874	0.15443976	0.048506649	0.14669427
1697	3.39	0.37697144	0.048890636	0.14360658	-0.027123457	0.73350366	0.15257022	-0.15584778	0.72363855	0.19837624	-0.27171741	0.69646991	-0.031336729	-0.13377274	0.71908923	-0.21263614	-0.011540833	0.7333573	-0.16512543	0.066690796	1.0989719	-0.0077636614	-0.0040738101	1.1683468	0.13586461	-0.010603947	1.1710625	-0.15790329	0.078865829	1.001798	-0.024640833	0.063649178	1.0519062	-0.12940082	0.31482352	0.49037866	0.086565132	0.29013443	0.50700568	0.21938806	0.22261284	0.64169611	0.13510886	0.25291422	0.10424197	0.10733334	0.19538371	0.091365494	0.19460472	0.25293559	0.30952405	0.22411111	0.15436826	0.048403866	0.14663536
1698	3.4	0.37688126	0.04892337	0.14362904	-0.026227953	0.73279901	0.15274698	-0.15471553	0.72419165	0.19846593	-0.27075806	0.69780347	-0.031283113	-0.13263641	0.7198418	-0.21259084	-0.01029905	0.73318829	-0.16506053	0.072758934	1.0970198	-0.0075796924	0.0029525585	1.1672502	0.13601672	-0.0037204936	1.1700574	-0.15755141	0.083800415	0.99971466	-0.024468609	0.069185295	1.0500243	-0.12915894	0.31479617	0.49024103	0.086600395	0.29023199	0.5068884	0.2194279	0.22282367	0.64155359	0.13517911	0.25282726	0.10417696	0.10726541	0.19531432	0.091302887	0.19452382	0.25291348	0.30945749	0.22406631	0.15429291	0.048289909	0.14656425
1699	3.41	0.3767905	0.048950687	0.14365129	-0.025291885	0.73202936	0.15294835	-0.15350409	0.72479041	0.19857375	-0.26972119	0.69922559	-0.031224276	-0.13140747	0.72063306	-0.21254085	-0.0089690304	0.73302435	-0.16499084	0.078976845	1.0949791	-0.0073895106	0.010188601	1.1660806	0.1361682	0.0033754666	1.1689811	-0.15719319	0.08889843	0.99755841	-0.024287476	0.07489167	1.0480634	-0.12892401	0.31479266	0.49008469	0.086633041	0.29036118	0.50675391	0.21946442	0.22307533	0.64139893	0.1352466	0.25274834	0.1040998	0.10718193	0.19524449	0.091230659	0.19442886	0.25290671	0.30937589	0.22401564	0.15421445	0.048165298	0.14648224
1700	3.42	0.37670041	0.04897332	0.14367253	-0.024216475	0.7312937	0.15316966	-0.15220911	0.72544226	0.19870457	-0.2685986	0.70073987	-0.031159708	-0.13008069	0.72145886	-0.21248787	-0.0075336618	0.73287036	-0.16491621	0.085329758	1.0928506	-0.0071973209	0.017632425	1.1648391	0.13631726	0.010679921	1.1678367	-0.15683167	0.094150414	0.99533392	-0.024099575	0.080769104	1.04603	-0.12869922	0.31481586	0.48990732	0.086660606	0.29052829	0.50660156	0.21949463	0.2233761	0.64123358	0.13530989	0.25267761	0.10400818	0.10708331	0.19517482	0.091148544	0.19432373	0.25291809	0.30927777	0.22396016	0.15413342	0.048030926	0.14639244
1701	3.43	0.37661212	0.048992599	0.14369203	-0.022941641	0.73065509	0.15340799	-0.15082277	0.72615363	0.19885976	-0.26738232	0.70235065	-0.031088833	-0.12865013	0.72231604	-0.21243318	-0.0059713259	0.7327334	-0.16483678	0.091809753	1.0906377	-0.0070083594	0.02528113	1.1635291	0.13646181	0.01818689	1.1666285	-0.1564696	0.099544716	0.99304785	-0.023908546	0.086817757	1.0439326	-0.12848695	0.31486774	0.48970691	0.086679695	0.29074094	0.5064332	0.21951538	0.22373387	0.64106091	0.13536781	0.25261467	0.10390131	0.10697186	0.19510573	0.091057137	0.19421394	0.25294948	0.3091636	0.22390054	0.15405031	0.047887764	0.14629904
1702	3.44	0.37652652	0.049010288	0.14370923	-0.021457952	0.73013385	0.15366377	-0.1493338	0.72692889	0.19903668	-0.26606494	0.7040636	-0.031010775	-0.12711009	0.7232027	-0.21237787	-0.004267725	0.732617	-0.16475188	0.098423103	1.0883501	-0.0068278995	0.033130638	1.1621548	0.13659964	0.025888802	1.1653608	-0.15610936	0.10507061	0.9907085	-0.02371871	0.093035706	1.0417804	-0.12828935	0.31494916	0.48948199	0.08668615	0.29100641	0.50625266	0.21952394	0.22415475	0.64088568	0.13541983	0.25255907	0.10378053	0.10685191	0.19503731	0.090957535	0.19410551	0.25300179	0.30903516	0.22383691	0.15396555	0.047736496	0.14620641
1703	3.45	0.37644424	0.049028316	0.14372348	-0.0197875	0.72972479	0.15393954	-0.14772955	0.72777301	0.19923083	-0.26464044	0.7058844	-0.030924343	-0.12545595	0.72411938	-0.21232385	-0.0024293537	0.73251404	-0.16465979	0.10519019	1.0860023	-0.0066596007	0.041175858	1.160723	0.13672821	0.033777351	1.1640378	-0.15575272	0.11072058	0.98832507	-0.023534151	0.099419098	1.039583	-0.1281093	0.31505939	0.48923233	0.086675514	0.29132938	0.50606424	0.21951759	0.22464192	0.64071332	0.13546645	0.25251038	0.1036489	0.10672937	0.19496951	0.090851181	0.1940038	0.2530753	0.30889536	0.22376906	0.15388014	0.047577095	0.14611798
1704	3.46	0.37636597	0.04904866	0.1437343	-0.017958914	0.72941797	0.15423798	-0.14599907	0.72869385	0.1994386	-0.26310342	0.70781775	-0.030828005	-0.12368424	0.72506848	-0.21227426	-0.00047949949	0.7324079	-0.16455872	0.11213561	1.083611	-0.0065047803	0.04941074	1.1592401	0.13684451	0.041844959	1.1626632	-0.15540056	0.11649251	0.98590656	-0.023358187	0.10596375	1.0373503	-0.12795092	0.31519678	0.48895923	0.086643562	0.2917095	0.50587	0.21949309	0.22519601	0.64054901	0.13550819	0.25246829	0.10351015	0.10661044	0.19490291	0.090739525	0.19391252	0.2531707	0.30874741	0.22369641	0.15379579	0.04740937	0.14603603
1705	3.47	0.37629269	0.049073074	0.14374167	-0.015995389	0.72920874	0.1545592	-0.14413446	0.7297027	0.1996588	-0.26144815	0.7098656	-0.030719873	-0.12179227	0.72605493	-0.21223277	0.0015611817	0.73228223	-0.16444695	0.11927594	1.0811888	-0.0063633423	0.057828419	1.1577128	0.13694556	0.05008585	1.1612397	-0.15505324	0.12239246	0.983461	-0.023193098	0.11266644	1.0350907	-0.12781842	0.31535916	0.48866556	0.086586662	0.29214218	0.50566852	0.21944739	0.2258179	0.64039667	0.13554439	0.25243312	0.10336751	0.10649935	0.19483905	0.090624062	0.19383322	0.25328943	0.30859442	0.22361783	0.15371492	0.047233936	0.14596165
1706	3.48	0.37622647	0.049102753	0.14374603	-0.01391226	0.72909845	0.15489919	-0.14212953	0.73081183	0.1998916	-0.25966714	0.71202783	-0.030597847	-0.11977657	0.72708362	-0.21220097	0.003688566	0.73212738	-0.16432222	0.12661529	1.0787435	-0.0062346029	0.066421272	1.1561459	0.13702924	0.058496403	1.1597698	-0.15471133	0.12843561	0.98099567	-0.023039757	0.11952479	1.0328105	-0.12771338	0.31554483	0.48835516	0.086502655	0.29262292	0.50545877	0.21937856	0.22651175	0.64026111	0.13557198	0.25240614	0.10322274	0.10639716	0.19478082	0.090506104	0.19376491	0.25343427	0.30843887	0.2235314	0.15364064	0.047052898	0.14589484
